 http://img40.imageshack.us/img40/6509/ultravioletm.jpg

Country.......: USA
Genre.........: Action, Sci-Fi
Date release..: 03.03.2006 [World]
Director......: Kurt Wimmer
Writers.......: Kurt Wimmer
Duration......: 84 min.
More..........: http://www.imdb.com/title/tt0370032
Trailer.......: http://www.imdb.com/video/screenplay/vi2363490585
Trailer.......:

Pilot :
A beautiful hemophage infected with a virus that gives her superhuman powers has to protect a boy in a futuristic world, who is thought to be carrying antigens that would destroy all hemophages. 

Cats :
Milla Jovovich   	 ...  	Violet
Cameron Bright 	... 	Six
Nick Chinlund 	... 	Daxus
Sebastien Andrieu 	... 	Nerva
Ida Martin 	... 	Young Violet
William Fichtner 	... 	Garth
David Collier 	... 	BF-1
Kieran O'Rorke 	... 	Detective Cross
Digger Mesch 	... 	Detective Endera
Ryan Martin 	... 	Detective Breeder
Steven Calcote 	... 	Young Daxus
Ricardo Mamood-Vega 	... 	Violet's Husband (as Ricardo Mamood)
Mike Smith 	... 	Hospital Hemophage
Clay Cullen 	... 	Rebel Hemophage
Jennifer Caputo 	... 	Elizabeth P. Watkins 

Data Technical :
!!! SAMPLE !!!
Audio.....: Lector Polish
Subtitles.: None
Format                           : AVI
Format/Info                      : Audio Video Interleave
File size                        : 700 MiB
Duration                         : 1h 23mn
Overall bit rate                 : 1 166 Kbps
Writing application              : VirtualDubMod 1.5.10.1 (build 2439/release)
Writing library                  : VirtualDubMod build 2439/release
Video
ID                               : 0
Format                           : MPEG-4 Visual
Format profile                   : Advanced Simple@L5
Format settings, BVOP            : Yes
Format settings, QPel            : No
Format settings, GMC             : No warppoints
Format settings, Matrix          : Custom
Codec ID                         : XVID
Codec ID/Hint                    : XviD
Duration                         : 1h 23mn
Bit rate                         : 1 014 Kbps
Width                            : 640 pixels
Height                           : 352 pixels
Display aspect ratio             : 16:9
Frame rate                       : 25.000 fps
Color space                      : YUV
Chroma subsampling               : 4:2:0
Bit depth                        : 8 bits
Scan type                        : Progressive
Bits/(Pixel*Frame)               : 0.180
Stream size                      : 609 MiB (87%)
Writing library                  : XviD 1.1.0 (UTC 2005-11-22)
Audio
ID                               : 1
Format                           : MPEG Audio
Format version                   : Version 1
Format profile                   : Layer 3
Codec ID                         : 55
Codec ID/Hint                    : MP3
Duration                         : 1h 23mn
Bit rate mode                    : Variable
Bit rate                         : 138 Kbps
Channel(s)                       : 2 channels
Sampling rate                    : 48.0 KHz
Stream size                      : 83.3 MiB (12%)
Alignment                        : Aligned on interleaves
Interleave, duration             : 24 ms (0.60 video frame)
Interleave, preload duration     : 116 ms
Writing library                  : LAME3.91

Screen : 
http://img717.imageshack.us/img717/8096/ultraviolet2006s1.jpg 
http://img849.imageshack.us/img849/8494/ultraviolet2006s2.jpg 
http://img199.imageshack.us/img199/8215/ultraviolet2006s3.jpg 
http://img832.imageshack.us/img832/6838/ultraviolet2006s4.jpg 
http://img833.imageshack.us/img833/8738/ultraviolet2006s5.jpg